<?xml version="1.0" encoding="iso-8859-1"?>
<!-- Generator: Adobe Illustrator 16.0.0, SVG Export Plug-In . SVG Version: 6.00 Build 0)  -->
<!DOCTYPE svg PUBLIC "-//W3C//DTD SVG 1.1//EN" "http://www.w3.org/Graphics/SVG/1.1/DTD/svg11.dtd">
<svg version="1.1" id="Capa_1" xmlns="http://www.w3.org/2000/svg" xmlns:xlink="http://www.w3.org/1999/xlink" x="0px" y="0px"
	 width="28px" height="28px" viewBox="0 0 28 28" style="enable-background:new 0 0 28 28;" xml:space="preserve">
<g>
	<path d="M23.898,4.101C21.254,1.456,17.738,0,14,0c-3.739,0-7.255,1.456-9.899,4.101C1.456,6.745,0,10.261,0,14
		s1.456,7.255,4.101,9.898C6.746,26.544,10.261,28,14,28c3.738,0,7.255-1.456,9.898-4.102C26.544,21.255,28,17.739,28,14
		S26.544,6.745,23.898,4.101z M3,14c0-2.938,1.144-5.701,3.222-7.778C8.3,4.145,11.063,3,14,3c2.432,0,4.734,0.794,6.639,2.241
		L5.241,20.639C3.794,18.736,3,16.432,3,14z M21.777,21.779c-2.077,2.078-4.84,3.222-7.777,3.222c-2.432,0-4.735-0.794-6.638-2.241
		L22.758,7.364c1.447,1.902,2.241,4.207,2.241,6.638C25,16.939,23.855,19.701,21.777,21.779z"/>
</g>
<g>
</g>
<g>
</g>
<g>
</g>
<g>
</g>
<g>
</g>
<g>
</g>
<g>
</g>
<g>
</g>
<g>
</g>
<g>
</g>
<g>
</g>
<g>
</g>
<g>
</g>
<g>
</g>
<g>
</g>
</svg>
