<?xml version="1.0" encoding="iso-8859-1"?>
<!-- Generator: Adobe Illustrator 19.0.0, SVG Export Plug-In . SVG Version: 6.00 Build 0)  -->
<svg version="1.1" id="Layer_1" xmlns="http://www.w3.org/2000/svg" xmlns:xlink="http://www.w3.org/1999/xlink" x="0px" y="0px"
	 viewBox="0 0 512 512" style="enable-background:new 0 0 512 512;" xml:space="preserve">
<g>
	<g>
		<g>
			<path d="M437.016,74.984c-99.979-99.979-262.075-99.979-362.033,0.002c-99.978,99.978-99.978,262.073,0.004,362.031
				c99.954,99.978,262.05,99.978,362.029-0.002C536.995,337.059,536.995,174.964,437.016,74.984z M406.848,406.844
				c-83.318,83.318-218.396,83.318-301.691,0.004c-83.318-83.299-83.318-218.377-0.002-301.693
				c83.297-83.317,218.375-83.317,301.691,0S490.162,323.549,406.848,406.844z"/>
			<path d="M368.911,155.586L234.663,289.834l-70.248-70.248c-8.331-8.331-21.839-8.331-30.17,0s-8.331,21.839,0,30.17
				l85.333,85.333c8.331,8.331,21.839,8.331,30.17,0l149.333-149.333c8.331-8.331,8.331-21.839,0-30.17
				S377.242,147.255,368.911,155.586z"/>
		</g>
	</g>
</g>
<g>
</g>
<g>
</g>
<g>
</g>
<g>
</g>
<g>
</g>
<g>
</g>
<g>
</g>
<g>
</g>
<g>
</g>
<g>
</g>
<g>
</g>
<g>
</g>
<g>
</g>
<g>
</g>
<g>
</g>
</svg>
