<?xml version="1.0" encoding="iso-8859-1"?>
<!-- Generator: Adobe Illustrator 19.0.0, SVG Export Plug-In . SVG Version: 6.00 Build 0)  -->
<svg version="1.1" id="Layer_1" xmlns="http://www.w3.org/2000/svg" xmlns:xlink="http://www.w3.org/1999/xlink" x="0px" y="0px"
	 viewBox="0 0 504.123 504.123" style="enable-background:new 0 0 504.123 504.123;" xml:space="preserve">
<path style="fill:#F2B303;" d="M400.912,237.513L339.07,130.442c-5.199-8.995-14.777-14.541-25.182-14.541H190.243
	c-10.39,0-19.992,5.545-25.175,14.541l-61.85,107.079c-5.191,8.995-5.191,20.086,0,29.074l61.85,107.095
	c5.183,9.011,14.785,14.541,25.175,14.541H313.88c10.405,0,19.984-5.53,25.182-14.541l61.85-107.095
	C406.095,257.599,406.095,246.508,400.912,237.513z"/>
<path style="fill:#FFC022;" d="M299.567,115.901H190.243c-10.39,0-19.992,5.545-25.175,14.541l-61.85,107.079
	c-5.191,8.995-5.191,20.086,0,29.074l27.727,48.026h109.316c10.405,0,19.999-5.545,25.198-14.549l61.85-107.087
	c5.167-9.003,5.167-20.086,0-29.082L299.567,115.901z"/>
<path style="fill:#F9D500;" d="M190.243,115.901c-10.39,0-19.992,5.545-25.175,14.541l-61.85,107.079
	c-5.191,8.995-5.191,20.086,0,29.074l27.727,48.026"/>
<g>
	<path style="fill:#FFC022;" d="M260.498,67.497c0,4.663-3.773,8.428-8.436,8.428l0,0c-4.663,0-8.436-3.773-8.436-8.428V8.436
		c0-4.663,3.773-8.436,8.436-8.436l0,0c4.663,0,8.436,3.773,8.436,8.436V67.497z"/>
	<path style="fill:#FFC022;" d="M260.498,495.687c0,4.663-3.773,8.436-8.436,8.436l0,0c-4.663,0-8.436-3.773-8.436-8.436v-59.061
		c0-4.663,3.773-8.428,8.436-8.428l0,0c4.663,0,8.436,3.773,8.436,8.428V495.687z"/>
	<path style="fill:#FFC022;" d="M388.529,127.52c-3.293,3.293-8.633,3.293-11.934,0l0,0c-3.293-3.3-3.293-8.641,0-11.934
		l41.771-41.748c3.293-3.316,8.625-3.316,11.934,0l0,0c3.293,3.285,3.293,8.617,0,11.918L388.529,127.52z"/>
	<path style="fill:#FFC022;" d="M85.756,430.301c-3.293,3.293-8.633,3.293-11.934,0l0,0c-3.3-3.3-3.3-8.641,0-11.934l41.763-41.771
		c3.3-3.293,8.633-3.293,11.941,0l0,0c3.293,3.3,3.293,8.641-0.008,11.934L85.756,430.301z"/>
	<path style="fill:#FFC022;" d="M436.626,260.498c-4.663,0-8.436-3.773-8.436-8.436l0,0c0-4.655,3.773-8.436,8.436-8.428h59.061
		c4.655-0.008,8.436,3.765,8.436,8.436l0,0c0,4.663-3.781,8.428-8.436,8.436L436.626,260.498z"/>
	<path style="fill:#FFC022;" d="M8.436,260.498c-4.663,0-8.436-3.773-8.436-8.436l0,0c0-4.655,3.773-8.436,8.428-8.436l59.077-0.008
		c4.655,0.008,8.428,3.781,8.428,8.444l0,0c0,4.663-3.773,8.436-8.444,8.428L8.436,260.498z"/>
	<path style="fill:#FFC022;" d="M376.604,388.529c-3.293-3.293-3.3-8.633,0-11.934l0,0c3.293-3.293,8.641-3.293,11.934,0.008
		l41.763,41.763c3.3,3.293,3.308,8.633,0,11.941l0,0c-3.3,3.293-8.633,3.285-11.934,0L376.604,388.529z"/>
	<path style="fill:#FFC022;" d="M73.823,85.756c-3.3-3.293-3.3-8.625,0-11.934l0,0c3.3-3.285,8.641-3.293,11.934-0.008
		l41.771,41.771c3.293,3.3,3.293,8.641,0,11.941l0,0c-3.308,3.293-8.641,3.293-11.941-0.016L73.823,85.756z"/>
</g>
<g>
</g>
<g>
</g>
<g>
</g>
<g>
</g>
<g>
</g>
<g>
</g>
<g>
</g>
<g>
</g>
<g>
</g>
<g>
</g>
<g>
</g>
<g>
</g>
<g>
</g>
<g>
</g>
<g>
</g>
</svg>
